<?xml version="1.0" encoding="utf-8"?>
<!-- Generator: Adobe Illustrator 25.3.0, SVG Export Plug-In . SVG Version: 6.00 Build 0)  -->
<svg version="1.1" id="Capa_1" xmlns="http://www.w3.org/2000/svg" xmlns:xlink="http://www.w3.org/1999/xlink" x="0px" y="0px"
	 viewBox="0 0 545.8 145.2" style="enable-background:new 0 0 545.8 145.2;" xml:space="preserve">
<style type="text/css">
	.st0{fill:#FD9B49;}
</style>
<g>
	<path class="st0" d="M40.7,112.7c7.1,2.6,14.4,3.7,22,2.9c2.8-0.3,5.7-1,8.6-0.5c5,0.9,10.1,0.4,14.9-0.6
		c17.6-3.7,30.6-13.5,38.5-29.7c1.9-3.8,1.6-4.1-2.7-4.4c-3.6-0.2-7.1-0.7-10.9,0.1c0.3-1.1,0.5-1.9,0.8-2.6
		c1.4-3.8,2.1-7.6,2.5-11.6c0.1-1.1-0.1-1.7-1.4-1.4c-3.4,0.7-6.8,1.5-10.1,2.6c-4,1.4-7.7,3.4-11.5,5.6c0-0.5-0.1-0.7-0.1-1
		c0.1-7.1-1.6-13.8-4.2-20.3c-0.3-0.8-0.5-1.9-1.8-0.9c-3.8,3-7.3,6.2-10.2,10.1c-1.8,2.3-3.3,4.8-4.8,7.2c-1.4-1.3-1.2-2.4-0.3-3.7
		c1.6-2.2,2.5-4.7,2.7-7.4c-0.1-0.6-0.3-1.2-0.4-1.8l0,0l0,0c-0.7-3.5-2.2-6.7-4-9.8c-2.2-3.7-4.8-7.1-6.9-10.9
		c-2.9-5.3-3.3-10.6-0.7-16.1c1.2-2.5,2.5-4.9,3.6-7.4c1.4-3.1,0.2-8.6-2.7-11c2,5.2-0.4,8.7-3.5,12.1c-7.6,8.3-6.4,18.9-1,28
		c2.6,4.5,6.6,7.9,9.4,12.2c2.3,3.4,1.9,6.9,0.5,10.8c-3.4-4.9-7-9.2-11.5-12.7c-1.1-0.9-1.5-0.8-1.9,0.4c-2.3,5.9-4.3,12-4.6,18.4
		c0,0.7,0.3,1.6-0.3,1.9c-0.7,0.3-1.3-0.5-1.9-0.9c-6.1-4.2-12.8-7.1-20-8.7c-1.2-0.3-1.8,0-1.7,1.3c0.1,1.4,0,2.9,0.2,4.3
		c0.7,4.6,1.8,9.1,3.5,13.6c-0.7,0-1.4,0-1.9-0.1c-5.5-1.1-11.1-0.8-16.6-0.3c-1.3,0.1-2,0.4-1.3,2.1C15.4,97,25.8,107.2,40.7,112.7
		z"/>
	<path class="st0" d="M402.4,66.5c-4.9-2.6-10.3-3.8-15.6-5c-4.5-1.1-8.1-3.4-9.3-8.3c-0.6-2.3-0.6-4.6-0.2-6.9
		c1.3-8.7,9-12.2,16.4-7.2c6.2,4.2,8.3,11.3,5.3,18.4c-0.6,1.4,0.2,1.6,1,2.1c1.2,0.8,1.2-0.3,1.5-0.9c1.7-3.6,2.1-7.4,1.2-11.2
		c-2-9.1-10.9-15-19.8-13.4c-9.3,1.8-15.7,11-14.1,20.4c1.2,7,5.9,10.9,11.9,13.6c3.5,1.6,7.3,1.9,10.9,3c9,2.5,16.4,7.1,20.2,16.1
		c3.7,8.8,3.7,17.9,1.3,27c-4.9,18.5-20.1,28.7-38.1,25.7c-16.4-2.8-30.4-18.7-30.8-34.9c0-1.4,0.2-1.9,1.7-1.8
		c6.3,0.1,12.5,0,18.8,0c1.1,0,2,0.1,1.9-1.5c0-1.5-0.6-1.8-1.9-1.8c-5.9,0.1-11.8,0-17.7,0c-0.9,0-1.6,0.1-1.6-1.2
		c0-3.6-0.2-7.1,1.4-10.5c0.5-1.1,1.1-2.1-0.8-2.5c-0.9-0.2-0.6-1.1-0.6-1.8c0-14.5,0-29,0-43.5c0-1.4,0.4-1.7,1.8-1.7
		c5.8,0.1,11.7,0,17.5,0c1.3,0,2-0.1,2-1.7c0-1.6-0.8-1.6-1.9-1.6c-5.9,0-11.8,0-17.7,0c-1.2,0-1.7-0.3-1.6-1.6
		c0.1-9.3,0.1-18.7,0-28c0-1.4,0.4-1.7,1.8-1.7c4.9,0.1,9.8,0,14.6,0c1,0,1.8,0.1,1.8-1.4s-0.7-1.6-1.9-1.6c-7.8,0-15.5,0.1-23.3,0
		c-1.7,0-2,0.5-2,2.1c0.1,16.3,0,32.5,0,48.8c0,16,0,32,0,48c0,2.9,0,3,2.9,3c1.2,0,1.7,0.2,1.7,1.6c0,1.6,0.2,3.3,0.5,4.9
		c4.1,24.2,30.2,41.8,57.4,30.6c12.3-5.1,25.7-19,24.8-39.7C422.9,85.1,416,73.8,402.4,66.5z"/>
	<path class="st0" d="M191.6,48.6c-5.3-5.8-11.8-9.5-20-11.6c3.7-1.7,6.7-3.4,9.1-6c5.9-6.2,6.1-15,0.3-21.2
		c-5-5.3-11.2-8.1-18.5-8.3c-6.6-0.2-13.2,0-19.8-0.1c-1.5,0-1.8,0.5-1.8,1.9c0,32.7,0,65.5,0,98.2c0,1.5,0.5,1.8,1.9,1.8
		c6.2-0.1,12.4,0,18.6,0c10.4,0,19.5-3.3,27.4-10C202.8,81.3,204,62,191.6,48.6z M149.8,20c0-4.6,0-9.2,0-13.8
		c0-1.2,0.3-1.7,1.6-1.6c3.3,0.1,6.6,0,9.9,0.1c7.5,0.2,15.1,8.2,15,15.6c-0.1,8.2-7.1,15.2-15.3,15.3c-3.2,0-6.3-0.1-9.5,0
		c-1.4,0-1.7-0.4-1.7-1.7C149.8,29.2,149.8,24.6,149.8,20z M191,72.8c-1.5,13.3-12.5,24.3-24.2,26.4c-5.3,0.9-10.7,0.4-16,0.5
		c-1.4,0-0.9-1.1-0.9-1.8c0-9.5,0-19.1,0-28.6s0-19.1,0-28.6c0-1.6,0.5-1.9,2-1.9c5.9,0.2,11.8-0.4,17.6,1.3
		C183,43.9,192.6,58.7,191,72.8z"/>
	<path class="st0" d="M501.3,101.9c4.1-1.9,7.4-4.9,10.9-8.6c0,1.4,0,2.2,0,3c0,2.2-0.7,5.1,0.4,6.4c1.3,1.4,4.3,0.2,6.5,0.5
		c1.6,0.2,2.1-0.3,2.1-2c-0.1-10.5,0-21,0-31.5c0-20.1-15.2-35.6-35.3-36.1c-23-0.6-40.7,19.9-36.5,42.5
		C453.4,98.6,478.1,113,501.3,101.9z M468.9,43.2c9.5-8.7,23-8.5,32.5,0.3c14.4,13.4,14.4,38.7,0,52.1c-10.8,10.1-26.5,8.6-36-3.4
		c-5.3-6.7-7.6-14.3-7.6-22.8C457.8,59.2,461.1,50.2,468.9,43.2z"/>
	<path class="st0" d="M287.9,84.1c-1.5-0.4-3-1-4.4-1.7c-1.2-0.6-1.8-0.3-2.3,1c-1.3,3.6-3.4,6.9-5.9,9.8
		c-8.5,10-22.1,11.9-32.2,4.6c-6.3-4.5-10.1-10.7-12.3-18c-0.6-1.9-0.3-2.7,1.7-3.4c18.2-7.3,36.4-14.7,54.6-22.1
		c1.9-0.8,1.9-1.4,0.9-3c-7.2-11.8-17.7-17.6-29.2-18c-26.6,0-43.9,23.5-36.8,46.8c5.4,17.4,23.5,28.3,41.4,24.8
		c11.3-2.3,19.7-8.7,25.2-18.8C289.2,85.1,289.3,84.5,287.9,84.1z M229.5,71.6c0-0.8,0-1.6,0-2.5c0-9,2.7-17,8.8-23.7
		c11-12.1,28.4-11.3,38.4,1.8c1.3,1.8,3.4,3.8,3.2,5.6c-0.3,2-3.5,2.1-5.4,2.9c-14.2,5.9-28.4,11.7-42.7,17.5
		C229.6,74,229.6,74,229.5,71.6z"/>
	<path class="st0" d="M322.8,65.6c0,11.9,0,23.7,0,35.6c0,1.5,0.3,2.1,1.9,1.9c1.8-0.2,3.6-0.1,5.4,0c1.2,0.1,1.5-0.4,1.5-1.5
		c0-17.6,0-35.1,0-52.7c0-6.4-5.1-12.7-11.3-14.1c-6-1.4-11.4,0-15.9,5c-0.1-4-0.1-4-3.6-4c-0.8,0-1.7,0-2.5,0
		c-3.1,0-2.7-0.3-2.7,2.6c0,9.7,0,19.4,0,29c0,11.2,0.1,22.4-0.1,33.6c0,1.9,0.5,2.4,2.3,2.2c1.5-0.1,3-0.2,4.5,0c1.7,0.2,2-0.5,2-2
		c-0.1-17.1,0-34.2,0-51.3c0-6.4,4.2-11.2,10.4-12.4c2.3-0.4,3.9,0.3,5.2,2c2.1,2.9,2.9,6.2,3,9.7C322.8,54.6,322.8,60.1,322.8,65.6
		z"/>
	<path class="st0" d="M117.5,109.8c1.2,0.8,2.5,1.3,3.7,2c1.3,0.8,2.5,1.7,3.5,2.9c2.2,2.5,2.4,6.5,0.1,8.6
		c-1.5,1.4-3.1,2.7-5.1,3.4c-7.2,2.9-14.7,5-22.5,6.1c-8.7,1.2-17.4,2-26.2,2.1c-11.7,0.2-23.3-0.3-34.9-2.4
		c-4.6-0.8-9-2.2-13.5-3.4c-4-1.1-7.8-2.6-11-5.3c-1.6-1.3-2.1-2.9-1.8-4.9c0.6-4.5,3.6-7.1,7.4-8.8c-0.3-0.5-0.8-0.2-1.2-0.4l0,0
		l0,0c-4.7,0.9-9.2,2.1-13,5.2c-3.3,2.7-4.3,6.9-1.5,10.5c2.2,3,5.1,5,8.4,6.4c13.2,5.8,27.3,7.4,41.4,8.2
		c10.8,0.6,21.7,0.5,32.6-0.2c9.7-0.6,19.2-1.6,28.7-3.8c6.6-1.6,12.9-3.6,18.4-7.6c4.8-3.5,5.6-8.4,1.8-12
		C128.6,112.4,123.1,111,117.5,109.8z"/>
	<path class="st0" d="M444.8,35.6c-0.6,0.1-1.2-0.1-1.9,0c-1.7,0.3-2-0.5-2-2.1c0.1-4.5,0-9.1,0.1-13.6c0-1.3-0.3-1.9-1.7-1.8
		c-1.8,0.1-3.7,0.1-5.6,0c-1.2-0.1-1.7,0.3-1.6,1.6c0.1,3.8,0.1,7.6,0,11.3c0,1.4,0.6,3.2-0.3,4.2c-0.8,0.9-2.6,0.3-3.9,0.3
		c-1.2,0-1.4,0.5-1.3,1.5c0.1,0.9-0.2,1.9,1.3,1.8c0.6,0,1.3,0.1,1.9,0c1.9-0.3,2.5,0.4,2.5,2.4c-0.1,20,0,40-0.1,59.9
		c0,1.5,0.3,2.2,2,2.1c1.5-0.2,3-0.1,4.5,0c1.8,0.2,2.4-0.3,2.4-2.3C441,91,441,81.1,441,71.2c0-9.5,0-18.9,0-28.4
		c0-3.8,0-3.9,3.8-3.9c1.4,0,1.5-0.6,1.5-1.7C446.3,36,446.1,35.4,444.8,35.6z"/>
	<path class="st0" d="M540.1,33.9c-1.3,0.1-2.7,0-3.8,0.7c-1.9,1.1-3.9,1-5.9,1c-1.1,0-2.2,0.1-3.3,0c-1.8-0.2-2.1,0.5-2.1,2.1
		c0.1,19.7,0,39.4,0,59.1c0,2-0.7,4.8,0.3,6c1.2,1.3,4,0.2,6.1,0.5c1.9,0.2,2.3-0.5,2.3-2.3c-0.1-19,0-38-0.1-57
		c0-1.5,0.1-3,1.3-4.6c0.2,0.8,0.2,1.4,0.4,1.9c0.6,2.1,2.3,3.1,5,3.1c2.8,0,4.7-1,5.2-3.1C546.4,36.9,544.8,33.7,540.1,33.9z"/>
	<path class="st0" d="M206.3,72.2c0,9.7,0,19.3,0,29c0,1.5,0.2,2.1,1.9,2c1.8-0.2,3.6-0.2,5.4,0c1.6,0.1,1.9-0.4,1.9-2
		c-0.1-10.6,0-21.3,0-31.9s0-21.3,0-31.9c0-1.4-0.3-2-1.8-1.9c-1.8,0.1-3.6,0.2-5.4,0c-1.7-0.2-2,0.5-2,2.1
		C206.4,49.1,206.3,60.6,206.3,72.2z"/>
	<path class="st0" d="M27.5,112.9c1-0.7,2-1.3,3-2c-2.9-0.1-5.7,0.1-8.1,1.8c-4.4,3.1-4.7,7.1-0.8,10.8c1.8,1.8,4,2.6,6.2,3.4
		c8.9,3.3,18.3,4.4,27.6,4.9c13,0.7,25.9,0.9,38.8-1.5c6.7-1.3,13.4-2.8,19.3-6.5c3.2-2,4.4-6.5,2.1-9c-2.5-2.7-5.8-3.5-9.8-3.9
		c1.4,1.1,2.4,1.8,3.2,2.6c2.4,2.4,2.1,5.6-0.7,7.5c-1.8,1.2-3.8,2.1-5.9,2.8c-8.7,2.9-17.8,3.9-26.9,4.5c-8.8,0.5-17.6,0-26.3-1.3
		c-7.2-1-14.3-2.4-21-5.5C23.8,119.4,24.7,114.8,27.5,112.9z"/>
	<path class="st0" d="M73.1,56.9c1.9-0.8,4-1.6,4.1-4c0.1-3,0.3-6-0.3-9c-0.3-1.2,0.1-2.2,1-3.1c3.5-3.7,6.2-7.8,6.8-13
		c0.7-6.7-2.7-11.7-7.2-16.1c-0.8-0.8-1.8-1.5-2.6-2.3c-0.9-0.7-1.8-1.5-3.3-2.1c3.2,4.5,5.9,8.7,7.5,13.4
		c2.2,6.5-0.9,11.5-6.7,12.1c0.6-1.6,1.2-3.2,1.6-4.8c0.6-2.5,1.3-5-0.5-7.3s-4.2-2.8-7-2.1c-2.6,0.6-4.3,2-5,4.5
		c-0.8,3-1,5.9,0.4,8.8c1,2,2.2,3.8,3.5,5.6c4,5.2,7.1,10.7,7.4,17.5C73.3,55.5,73,56.3,73.1,56.9z"/>
	<path class="st0" d="M530.9,125.3c-0.3-4.5-4-8-8.6-8.2c-5.2-0.2-8.7,2.9-10,9c-2.1-1.7-4.5-2.2-7.6-2.2c1.7-1.1,0.6-3.3,2.5-4
		c0.8-0.3,1.8-1,1.6-1.9c-0.2-0.9-1.2-1.1-2.2-1.4c-0.1,0.9,0,1.9-0.8,2.5c-0.4-0.4-0.7-0.8-1.1-1.2c-1.2-1.1-2.6-1.1-4-0.5
		s-2.3,1.7-2.1,3.2c0.2,1.7,0,2.8-1.9,3.3c-1.2,0.3-1.8,1.6-1.3,2.8c0.5,1.2,1.8,1.2,2.9,0.9c0.8-0.2,1.5-0.7,2.2-1.1
		c1.9-1.1,3.9-1.8,6.1-1.5c4,0.6,6.8,4.1,7.1,8.9c0.4,6.5-5.1,11.1-10.8,9.3c-4.8-1.6-7.3-6.6-6-11.6c0.1-0.5,1-1.4-0.2-1.6
		c-0.8-0.2-0.8,0.8-0.9,1.3c-1.7,5.4,1.5,11.3,6.9,12.9c5.7,1.7,11.9-1.6,13.3-7.2c0.3-1.1,0.4-2.2,0.6-3.4c2,1.2,3.9,1.7,6,1.6
		c2.1-0.1,3.9-1,5.7-2.3c0,1.2-0.1,2,1.4,2c1.7-0.1,1.2-1.1,1.2-2C531,130.4,531.1,127.9,530.9,125.3z M499.1,126.3
		c-0.4,0.2-0.9,0.6-1.2,0c-0.3-0.5-0.2-1.1,0.3-1.5c1-0.7,2-0.8,3.3,0C500.6,125.4,499.9,125.8,499.1,126.3z M502.3,123.4
		c-1.1,0-1.2-1.5-1.2-2.5s0.1-2.4,1.3-2.4c1.1,0,1.1,1.4,1.2,2.5C503.5,122,503.5,123.4,502.3,123.4z M528.2,128.1
		c-0.8,3.6-3.7,6.1-6.8,5.9c-3.2-0.2-5.9-3.4-6.1-7.2c-0.1-1.3,0.1-2.6,0.6-3.8c1.2-3.2,4.1-5.1,7-4.6c3.2,0.6,5.6,3.9,5.6,8.3
		C528.3,126.9,528.3,127.5,528.2,128.1z"/>
	<path class="st0" d="M224.8,124.9c-0.9-0.3-1.9-0.5-2.7-0.8c-1.2-0.5-1.6-1.6-1.5-2.9c0.1-1,0.5-2.1,1.6-2.4c1.3-0.3,2.3,0.3,3,1.3
		c0.7,0.9,0.8,1.9,0.6,2.9c-0.1,0.5-0.5,1.2,0.3,1.3c0.7,0.1,0.7-0.7,0.8-1.2c0.6-2.2-0.6-4.5-2.8-5.3c-2.1-0.8-4.4,0-5.5,2
		c-1.2,2.2-0.7,4.6,1.4,6c1,0.7,2.2,1,3.4,1.3c4,1,6,3.5,6,7.7c0,4.7-2.8,8.6-6.6,9.3c-4.1,0.7-8.4-1.8-10-5.9
		c-0.7-1.9-1.1-3.8,1-5.3c0.4-0.3,0.7-0.8,1-1.3c0.2-0.4,0.8-0.8,0.3-1.2c-0.5-0.5-1.5-0.9-1.8-0.5c-0.6,0.7-1.9,0.7-2,2.1
		c0,1.1-0.9,1.6-1.8,2c-3.1,1.5-6.6-0.1-8.3-3.6c-0.6-1.2-0.4-1.8,0.9-2.3c3.9-1.4,7.6-3.2,11.5-4.5c2.1-0.7,1.6-1.5,0.6-2.7
		c-2.8-3.4-7.9-4.4-11.8-2.2c-4.1,2.3-5.7,7.1-4,11.4c1.7,4.1,6.3,6.4,10.7,5.4c1.1-0.3,1.8-0.6,2,1.1c0.7,5.1,5.2,8.7,10.4,8.6
		c5.2,0,9.5-3.8,10.2-8.9C232.8,130.8,230,126.5,224.8,124.9z M203.3,120.4c2.7-2.5,6.9-2,8.9,1.1c0.5,0.8,0.4,1.1-0.5,1.5
		c-3.6,1.4-7.2,2.9-11.1,4.5C200.6,124.5,201.4,122.2,203.3,120.4z"/>
	<path class="st0" d="M266.2,125c-0.9-0.3-1.9-0.5-2.8-0.8c-1.3-0.5-1.7-1.6-1.6-2.8c0.1-1.1,0.5-2.2,1.7-2.5c1.3-0.3,2.3,0.4,3,1.4
		c0.7,0.9,0.8,1.9,0.5,2.9c-0.1,0.5-0.5,1.2,0.4,1.3c0.6,0.1,0.6-0.7,0.7-1c0.7-2.2-0.5-4.5-2.6-5.4s-4.5-0.1-5.6,2
		c-1.2,2.2-0.7,4.5,1.3,5.8c1,0.7,2.2,1.1,3.4,1.3c2.2,0.4,4,1.5,5.2,3.4c2.5,4.1,0.6,10.7-3.7,12.9c-4,2.1-9.8-0.3-11.8-4.9
		c-1.1-2.5-0.8-2.9,1.8-3.2c0.1,0,0.1,0,0.2,0c0.4,0,0.8-0.1,0.8-0.6c0-0.6-0.5-0.6-0.9-0.6c-0.3,0-0.7,0-1,0
		c-1.4,0.2-1.7-0.4-1.3-1.6c0.1-0.3,0.2-0.6,0.3-1s0.1-0.7-0.3-0.9c-0.6-0.3-0.7,0.2-0.9,0.6c-0.3,0.9-0.5,1.8-0.7,2.7
		c-0.2,0-0.3,0-0.5,0c0-3.5,0-6.9,0-10.4c0-4.1,0-4.1,4-4.3c0.5,0,1.2,0.3,1.3-0.6c0-0.9-0.7-0.6-1.2-0.6c-0.3,0-0.7,0-1,0
		c-3.1,0-3.1,0-3.1-3c0-0.1,0-0.1,0-0.2c0.1-1.3-0.5-2.8,0.3-3.8c0.7-0.9,2.2-0.2,3.3-0.4c0.5-0.1,1-0.1,0.9-0.8
		c-0.1-0.6-0.5-0.5-0.9-0.5c-1.6,0-3.2,0.1-4.7,0c-1.1-0.1-1.4,0.3-1.4,1.4c0,7.8,0,15.5,0,23.3c0,1.1,0.4,1.5,1.4,1.3
		c1.2-0.2,1.8,0.1,2,1.6c0.8,5,5.4,8.5,10.7,8.3c5-0.1,9.3-4,9.9-8.8C274,130.8,271.4,126.5,266.2,125z"/>
	<path class="st0" d="M310.6,109.3c-1.3,0-1.3,0.7-1.3,1.6c0,2.9,0,5.7,0,9.1c-0.8-0.5-1.2-0.8-1.6-1c-3.7-2.2-8.4-1.8-11.4,1.2
		c-3.1,3-3.8,7.2-1.7,10.9c2.1,3.7,6.3,5.5,10.4,4.4c4.2-1.1,6.9-4.6,6.9-9.1c0-5.1,0-10.3,0-15.4
		C312,109.8,311.9,109.3,310.6,109.3z M308.7,130c-1.2,3-3.8,4.7-6.5,4.4c-2.7-0.2-5.2-2.7-5.8-5.6c-0.2-0.7-0.2-1.5-0.3-2.2
		c0.1-0.7,0.1-1.3,0.2-1.9c0.5-3.1,3.1-5.6,5.8-5.9c2.8-0.3,5.5,1.6,6.7,4.8C309.6,125.7,309.6,127.9,308.7,130z"/>
	<path class="st0" d="M148.6,109.5c-2-0.4-4-0.1-6-0.3c-1.3-0.1-1.6,0.4-1.6,1.6c0.1,3.8,0,7.6,0,11.3c0,3.8,0,7.7,0,11.5
		c0,0.9,0,1.5,1.3,1.5c1.1,0,1.4-0.4,1.4-1.4c-0.1-1.2,0-2.3,0-3.5c0-3.5,0-3.5,3.5-3.8c4.8-0.3,8.6-3.8,8.9-8.1
		C156.5,114.2,153.4,110.6,148.6,109.5z M152.4,122c-1.8,2.8-4.5,3.6-7.7,3.4c-0.9-0.1-0.9-0.5-0.9-1.2c0-2.1,0-4.1,0-6.2
		c0-2,0-4,0-6c0-0.8,0.2-1.3,1.1-1.3c3.2-0.2,5.9,0.7,7.6,3.5C154.1,116.8,154,119.5,152.4,122z"/>
	<path class="st0" d="M188.2,124.7c-0.6-3.6-3.9-6.5-7.6-7.1c-4-0.6-7.8,1.4-9.6,4.9c-1.7,3.3-1.1,7.5,1.5,10.3
		c3.5,3.6,7.9,3.8,13.3,0.7c-0.1,1-0.2,2.1,1.3,1.8c0.7-0.1,1.4,0.2,1.4-1C188.4,131.1,188.8,127.9,188.2,124.7z M185.7,128.4
		c-0.7,3.6-3.6,6.2-6.7,6.1c-3.2-0.1-5.9-3.2-6.3-7c-0.1-1.4,0.1-2.7,0.6-4c1.3-3.2,4.1-5.1,7-4.5c3.2,0.6,5.6,3.9,5.6,8.3
		C185.8,127.3,185.8,127.8,185.7,128.4z"/>
	<path class="st0" d="M329.5,117.6c-5.2,0-9.2,3.9-9.2,9s4,9.1,9.1,9.1c5.2,0,9.2-3.9,9.2-9C338.6,121.5,334.7,117.6,329.5,117.6z
		 M335.4,129.9c-1.2,3.3-4.1,5.2-7.2,4.6c-3.1-0.6-5.4-4-5.4-7.9c0-0.1,0-0.3,0-0.4c0.2-4.2,3.1-7.4,6.5-7.5c3.5,0,6.5,3.4,6.6,7.6
		C336,127.6,335.8,128.8,335.4,129.9z"/>
	<path class="st0" d="M482.4,117.1c-5.2,0-9.1,4-9.1,9.1c0,5.1,4.1,9,9.2,9s9.1-4,9.1-9.2C491.6,121,487.7,117.1,482.4,117.1z
		 M489.1,127.2c-0.4,3.8-3.2,6.9-6.4,7c-3.2,0.1-5.9-2.5-6.6-6.5c-0.1-0.8-0.2-1.6-0.1-2.5c0.5-4.3,3.4-7.2,7-6.9
		c3.4,0.2,6.2,3.8,6.1,8.2C489.1,126.7,489.1,126.9,489.1,127.2z"/>
	<path class="st0" d="M469,109c-1.1-0.3-0.8,1-1,1.6c-0.9,4-1.7,8-2.6,12.6c-1-4.6-1.9-8.7-2.6-12.8c-0.3-1.7-1.2-1.6-2.3-1.5
		c-1.4,0.2-0.4,1.2-0.3,1.7c1.2,7.7,3.9,15.1,3.3,23.1c-0.1,0.9,0.4,1.1,1.2,1.1c0.9,0,1.4-0.2,1.4-1.2c-0.2-4.6,0-9.2,1.2-13.7
		c0.7-3,1.3-6,1.9-9.1C469.2,110.3,469.9,109.2,469,109z"/>
	<path class="st0" d="M166.1,109.3c-1.6,0-1.4,0.9-1.4,1.8c0,3.7,0,7.4,0,11.1c0,3.8,0,7.5,0,11.3c0,1-0.2,1.9,1.4,1.8
		c1.4,0,1.3-0.8,1.3-1.7c0-7.5,0-15.1,0-22.6C167.4,110.1,167.6,109.3,166.1,109.3z"/>
	<path class="st0" d="M441,117.6c-0.9-0.2-0.9,0.6-1,1.2c-0.9,3.5-1.7,7-2.7,11c-0.3-1.1-0.5-1.7-0.7-2.4c-0.7-2.9-1.5-5.8-2.1-8.8
		c-0.3-1.4-1.3-1.2-2.2-1.1c-1.2,0.2-0.5,1-0.4,1.6c0.7,3,1.3,6,2.1,9c1.3,4.5,2.2,9,0.3,13.6c-0.2,0.5-0.8,1.4,0.2,1.7
		c0.9,0.2,0.7-0.8,0.8-1.4c1.9-7.6,3.8-15.3,5.6-22.9C441.2,118.7,442,117.9,441,117.6z"/>
	<path class="st0" d="M289.6,117.9c-1,0-1.5,0.3-1.4,1.4c0.1,2.1,0,4.3,0,6.4l0,0c0,2.1,0,4.3,0,6.4c0,1-0.2,2.1-1.3,2.3
		c-1.2,0.2-2-0.7-2.5-1.7c-0.3-0.6-0.3-1.3-0.3-2c0-3.8,0-7.5,0-11.3c0-0.5,0.3-1.2-0.5-1.3c-0.9-0.1-0.7,0.6-0.7,1.2
		c0,4.1-0.1,8.2,0,12.3c0.1,2.5,1.9,4.2,4.2,4.2c2.2-0.1,3.9-1.7,3.9-4.2c0.1-4,0-8.1,0-12.1C291,118.3,290.7,117.9,289.6,117.9z"/>
	<path class="st0" d="M210.7,32.3c3.1,0,4.8-1.6,4.7-4.4c0-2.7-1.7-4.3-4.6-4.3c-3,0-4.4,1.4-4.5,4.3
		C206.3,31,207.7,32.3,210.7,32.3z"/>
	<path class="st0" d="M195.4,118.2c-1.8-0.4-1.1-1.8-1.1-2.8s-0.1-1.6-1.4-1.6c-1.2,0-1.2,0.7-1.3,1.5c-0.1,1,0.8,2.4-1.1,2.8
		c-0.4,0.1-0.3,0.9,0.1,1c1.4,0.1,1,1.1,1,1.8c0,2.1,0,4.1,0,6.2s0,4.3,0,6.4c0,1-0.2,1.9,1.4,1.8c1.5,0,1.3-0.9,1.3-1.7
		c0-4,0-8,0-11.9c0-0.9-0.6-2.3,1.1-2.6C195.7,119,195.7,118.3,195.4,118.2z"/>
	<path class="st0" d="M279.7,114.9c-0.1-1-0.5-1.2-1.4-1.1c-1.1-0.2-1.3,0.3-1.4,1.4c-0.1,1,0.8,2.5-1.1,3c-0.3,0.1-0.3,0.9,0.2,0.9
		c1.3,0.1,0.9,1,0.9,1.7c0,4.3,0,8.5,0,12.8c0,0.9-0.2,1.7,1.3,1.8c1.5,0,1.4-0.8,1.4-1.8c0-4.1,0-8.2,0-12.3c0-0.8-0.4-1.9,1-2
		c0.4,0,0.4-0.8,0.3-0.8C278.9,117.7,279.8,116.1,279.7,114.9z"/>
	<path class="st0" d="M161.8,119.4c0-1-0.3-1.4-1.4-1.4c-1.2,0-1.5,0.5-1.4,1.6c0.1,2.3,0,4.7,0,7c0,2.5,0,4.9,0,7.4
		c0,1,0.2,1.5,1.4,1.4c1,0,1.5-0.2,1.4-1.4C161.7,129.1,161.7,124.2,161.8,119.4z"/>
	<path class="st0" d="M317.4,126.8c0-2.5,0-5.1,0-7.6c0-1-0.4-1.3-1.3-1.3c-1,0-1.5,0.1-1.5,1.3c0.1,4.9,0,9.9,0,14.8
		c0,1,0.4,1.3,1.3,1.3c1,0,1.5-0.1,1.5-1.3C317.3,131.6,317.4,129.2,317.4,126.8z"/>
	<path class="st0" d="M160.2,117.5c0.8,0,1.3-0.3,1.4-1.1c-0.1-0.8-0.4-1.3-1.2-1.3s-1.3,0.5-1.3,1.3
		C159.1,117,159.5,117.5,160.2,117.5z"/>
	<path class="st0" d="M315.8,117.5c0.8,0,1.3-0.3,1.4-1.1c0-0.8-0.5-1.3-1.3-1.3s-1.3,0.5-1.3,1.3
		C314.7,117,315.1,117.5,315.8,117.5z"/>
	<path class="st0" d="M72.7,54.9c-0.1,0.1-0.3,0.2-0.4,0.4c0.2,0.2,0.4,0.4,0.5,0.6C72.8,55.5,72.8,55.2,72.7,54.9z"/>
	<path class="st0" d="M72.7,57c0.1,0,0.3-0.1,0.4-0.1c-0.1-0.1-0.2-0.2-0.2-0.4C72.9,56.7,72.8,56.9,72.7,57z"/>
	<path class="st0" d="M72.7,57c0.1-0.2,0.2-0.3,0.2-0.5c-0.1-0.2-0.1-0.5-0.1-0.7c-0.1-0.2-0.3-0.4-0.5-0.6l0,0
		C72.5,55.9,72.6,56.5,72.7,57z"/>
	<path class="st0" d="M72.8,55.9c0.1,0.2,0.2,0.4,0.1,0.7c0.1,0.1,0.1,0.3,0.2,0.4c-0.1-0.7,0.2-1.4-0.4-2
		C72.8,55.2,72.8,55.5,72.8,55.9z"/>
	<path class="st0" d="M72.8,55.9c0,0.2,0,0.5,0.1,0.7C72.9,56.3,72.9,56.1,72.8,55.9z"/>
	<path class="st0" d="M17.3,110.1c0.3-0.1,0.6-0.4,0.4-0.5c-0.5-0.5-1.1-0.2-1.6,0.2C16.5,109.7,17.2,109.1,17.3,110.1z"/>
	<path class="st0" d="M17.3,110.1c-0.1-1-0.8-0.4-1.2-0.4l0,0C16.5,109.9,17,109.6,17.3,110.1z"/>
</g>
</svg>
