<?xml version="1.0" encoding="utf-8"?>
<!-- Generator: Adobe Illustrator 25.3.0, SVG Export Plug-In . SVG Version: 6.00 Build 0)  -->
<svg version="1.1" baseProfile="tiny" id="Capa_1" xmlns="http://www.w3.org/2000/svg" xmlns:xlink="http://www.w3.org/1999/xlink"
	 x="0px" y="0px" viewBox="0 0 240 88" overflow="visible" xml:space="preserve">
<g>
	<path fill="#FE9B4B" d="M35.8,42.5c0,5.2-2.2,9.7-6.6,13.5c-4.4,3.7-9.7,5.6-15.9,5.6H2.5V3.2h10.9c3.7,0,6.9,1,9.7,3.1
		c2.7,2.1,4.1,4.5,4.1,7.3c0,2.3-0.9,4.3-2.7,6.1c-1.8,1.8-4.1,3-6.9,3.7c5.2,0.9,9.6,3.1,13,6.7C34.1,33.8,35.8,37.9,35.8,42.5z
		 M23,13.7c0-2.5-1-4.7-3.1-6.6c-2.1-1.9-4.2-2.9-6.5-2.9H6.6v19.1h6.8c2.6,0,4.9-0.9,6.8-2.8C22,18.5,23,16.3,23,13.7z M31.6,42.5
		c0-5-1.8-9.3-5.3-12.9c-3.5-3.6-7.8-5.4-12.9-5.4H6.6v36.4h6.8c5.1,0,9.4-1.8,12.9-5.3S31.6,47.5,31.6,42.5z"/>
	<path fill="#FE9B4B" d="M44.6,18.3c0,1.4-0.7,2.1-2.2,2.1c-1.3,0-1.9-0.7-1.9-2.1c0-1.4,0.6-2.1,1.9-2.1
		C43.8,16.2,44.6,16.9,44.6,18.3z M44.6,61.6h-4.1V23.3h4.1V61.6z"/>
	<path fill="#FE9B4B" d="M87.5,51.7c-1.7,3.4-4.2,6.1-7.5,8.2S73.2,63,69.2,63c-5.6,0-10.5-2-14.5-6s-6-8.9-6-14.5
		c0-5.7,2-10.5,6-14.5c4-4,8.9-6,14.5-6c3.9,0,7.5,1,10.7,3c3.2,2,5.7,4.6,7.4,8l-34,13.9c0.8,4.4,2.7,8.1,5.7,11
		c3,2.9,6.4,4.4,10.2,4.4c3.3,0,6.3-1.1,9-3.2c2.7-2.1,4.7-5,6-8.5L87.5,51.7z M83.7,33.2c-1.3-3.2-3.3-5.7-5.9-7.6
		c-2.6-1.9-5.5-2.8-8.6-2.8c-4.5,0-8.3,1.9-11.5,5.8c-3.2,3.8-4.8,8.5-4.8,13.9c0,0.8,0.1,1.9,0.2,3.5L83.7,33.2z"/>
	<path fill="#FE9B4B" d="M112.1,61.6h-4V30.8c0-2-0.4-3.8-1.3-5.3c-0.9-1.5-1.8-2.3-2.9-2.3c-1.9,0-3.6,0.6-5,1.9
		c-1.4,1.2-2.3,2.8-2.6,4.7v31.7h-4.1V23.4h4.1v3.7c1.6-3.1,4.1-4.7,7.6-4.7c2.2,0,4.2,0.8,5.8,2.5c1.6,1.7,2.4,3.7,2.4,5.9V61.6z"
		/>
	<path fill="#FE9B4B" d="M132.6,61.6h-16.5V3.2h14.7v0.9h-10.5v19.2h12.4v0.9h-12.4v36.6h12.4V61.6z"/>
	<path fill="#FE9B4B" d="M165.9,61.6c0,6.5-2.3,12.1-6.9,16.6c-4.6,4.6-10.2,6.9-16.7,6.9c-6.5,0-12-2.3-16.6-6.9
		c-4.6-4.6-6.9-10.1-6.9-16.6c0-3.3,0.6-6.4,1.9-9.3l0.8,0.3c-1.2,2.9-1.8,5.9-1.8,9c0,6.3,2.2,11.6,6.7,16.1
		c4.4,4.4,9.8,6.7,16,6.7c5.4,0,9.9-2.2,13.7-6.7c3.8-4.4,5.7-9.8,5.7-16.1c0-10.8-5.4-17.2-16.3-19.3c-3.3-0.6-5.9-1.9-7.8-3.7
		s-2.8-4.1-2.7-6.8c0.1-2.7,1.1-5,2.9-6.8c1.8-1.9,4-2.8,6.6-2.8c2.6,0,4.9,0.9,6.7,2.8c1.9,1.9,2.8,4.1,2.8,6.8
		c0,1.5-0.4,3-1.1,4.4l-0.5-0.3c0.6-1.2,1-2.6,1-4.1c0-2.4-0.9-4.5-2.6-6.3c-1.7-1.8-3.8-2.6-6.1-2.6c-1.6,0-3,0.7-4.1,2.1
		c-1.2,1.4-1.7,3.3-1.7,5.8c0,4.3,2.4,6.9,7.1,7.8c6.1,1.2,10.9,3.6,14.4,7.5C164,50.1,165.9,55.3,165.9,61.6z"/>
	<path fill="#FE9B4B" d="M179,24.1H176v37.5h-4.1V24.1h-3.3v-0.9h3.3V13.1h4.1v10.2h3.1V24.1z"/>
	<path fill="#FE9B4B" d="M222.5,61.6h-4.1v-6.7c-4.1,5.4-9.6,8.1-16.3,8.1c-5.6,0-10.5-2-14.5-6c-4-4-6.1-8.9-6.1-14.5
		c0-5.7,2-10.5,6-14.5c4-4,8.9-6,14.5-6c5.7,0,10.5,2,14.5,6c4,4,6,8.8,6,14.5V61.6z M218.3,42.4c0-5.4-1.6-10.1-4.8-13.9
		c-3.2-3.8-7.1-5.8-11.6-5.8c-4.5,0-8.3,1.9-11.5,5.8c-3.2,3.8-4.8,8.5-4.8,13.9c0,5.4,1.6,10.1,4.8,13.9c3.2,3.8,7,5.8,11.5,5.8
		c4.5,0,8.4-1.9,11.6-5.8C216.7,52.5,218.3,47.9,218.3,42.4z"/>
	<path fill="#FE9B4B" d="M236.8,24.8c0,1.7-0.9,2.5-2.6,2.5c-1.7,0-2.6-0.8-2.6-2.5c0-0.5,0.2-1,0.6-1.5c-1.3,0.5-2.1,1.6-2.4,3.2
		v35.2h-4.1V23.3h4.1v1c1-1.3,2.4-2,4.4-2C235.9,22.2,236.8,23.1,236.8,24.8z"/>
</g>
</svg>
