<?xml version="1.0" encoding="utf-8"?>
<!-- Generator: Adobe Illustrator 25.3.0, SVG Export Plug-In . SVG Version: 6.00 Build 0)  -->
<svg version="1.1" id="Capa_1" xmlns="http://www.w3.org/2000/svg" xmlns:xlink="http://www.w3.org/1999/xlink" x="0px" y="0px"
	 viewBox="0 0 243 76" style="enable-background:new 0 0 243 76;" xml:space="preserve">
<style type="text/css">
	.st0{fill:none;}
	.st1{fill:#F9F9F9;}
</style>
<g>
	<path class="st0" d="M88.9,19.3c-0.1-0.2-0.2-0.3-0.3-0.5s-0.2-0.3-0.3-0.5c-0.5-0.6-1.1-1.1-1.7-1.4s-1.4-0.5-2.2-0.5
		c-1,0-1.9,0.3-2.7,0.8c-0.8,0.5-1.4,1.2-1.8,2.1H87H88.9z"/>
	<path class="st0" d="M117,51.3c-0.5-0.5-1-0.8-1.6-1.1c-0.6-0.3-1.3-0.4-2-0.4s-1.4,0.1-2,0.4c-0.6,0.3-1.1,0.6-1.6,1.1
		c-0.5,0.5-0.8,1-1.1,1.6c-0.3,0.6-0.4,1.3-0.4,2c0,0.7,0.1,1.3,0.4,1.9c0.3,0.6,0.6,1.1,1.1,1.6c0.5,0.5,1,0.8,1.6,1.1
		c0.6,0.3,1.3,0.4,2,0.4s1.4-0.1,2-0.4c0.6-0.3,1.1-0.6,1.6-1.1c0.5-0.5,0.8-1,1.1-1.6s0.4-1.3,0.4-1.9c0-0.7-0.1-1.4-0.4-2
		S117.5,51.7,117,51.3z"/>
	<path class="st0" d="M73.6,51.2c-0.5-0.5-1-0.8-1.6-1.1c-0.6-0.3-1.3-0.4-1.9-0.4c-0.7,0-1.3,0.1-1.9,0.4c-0.6,0.3-1.1,0.6-1.6,1.1
		c-0.5,0.5-0.8,1-1.1,1.6c-0.3,0.6-0.4,1.3-0.4,1.9c0,0.7,0.1,1.3,0.4,1.9c0.3,0.6,0.6,1.1,1.1,1.6c0.5,0.5,1,0.8,1.6,1.1
		c0.6,0.3,1.3,0.4,1.9,0.4c0.7,0,1.3-0.1,1.9-0.4c0.6-0.3,1.1-0.6,1.6-1.1c0.5-0.5,0.8-1,1.1-1.6s0.4-1.3,0.4-1.9
		c0-0.7-0.1-1.3-0.4-1.9S74.1,51.6,73.6,51.2z"/>
	<path class="st0" d="M88.2,56.6c0.4,0.4,0.8,0.6,1.3,0.8c0.5,0.2,1,0.3,1.5,0.3c0.6,0,1.1-0.1,1.5-0.3c0.5-0.2,0.9-0.5,1.3-0.8
		c0.4-0.4,0.6-0.8,0.9-1.3c0.2-0.5,0.3-1,0.3-1.5c0-0.5-0.1-1-0.3-1.5c-0.2-0.5-0.5-0.9-0.9-1.3c-0.4-0.4-0.8-0.6-1.3-0.9
		c-0.5-0.2-1-0.3-1.5-0.3c-0.5,0-1,0.1-1.5,0.3c-0.5,0.2-0.9,0.5-1.3,0.9c-0.4,0.4-0.6,0.8-0.8,1.3c-0.2,0.5-0.3,1-0.3,1.5
		c0,0.5,0.1,1,0.3,1.5C87.6,55.8,87.9,56.2,88.2,56.6z"/>
	<path class="st0" d="M11.8,19.6c0.6-0.3,1.1-0.7,1.5-1.1c0.4-0.5,0.8-1,1-1.6c0.2-0.6,0.4-1.2,0.4-1.9c0-0.7-0.1-1.3-0.4-1.9
		c-0.2-0.6-0.6-1.2-1-1.6c-0.4-0.5-0.9-0.9-1.5-1.1c-0.6-0.3-1.2-0.4-1.9-0.4H5.5V20h4.4C10.6,20,11.2,19.9,11.8,19.6z"/>
	<path class="st0" d="M205.8,17.9c-0.5-0.5-1-0.8-1.6-1.1c-0.6-0.3-1.3-0.4-1.9-0.4s-1.3,0.1-1.9,0.4c-0.6,0.3-1.1,0.6-1.6,1.1
		c-0.5,0.5-0.8,1-1.1,1.6c-0.3,0.6-0.4,1.3-0.4,1.9c0,0.7,0.1,1.3,0.4,1.9c0.3,0.6,0.6,1.1,1.1,1.6c0.5,0.5,1,0.8,1.6,1.1
		c0.6,0.3,1.3,0.4,1.9,0.4s1.3-0.1,1.9-0.4c0.6-0.3,1.1-0.6,1.6-1.1c0.5-0.5,0.8-1,1.1-1.6c0.3-0.6,0.4-1.3,0.4-1.9v0
		c0-0.7-0.1-1.3-0.4-1.9C206.6,18.9,206.2,18.4,205.8,17.9z"/>
	<path class="st0" d="M236.1,17.9c-0.5-0.5-1-0.8-1.6-1.1c-0.6-0.3-1.3-0.4-1.9-0.4s-1.3,0.1-1.9,0.4c-0.6,0.3-1.1,0.6-1.6,1.1
		c-0.5,0.5-0.8,1-1.1,1.6c-0.3,0.6-0.4,1.3-0.4,1.9c0,0.7,0.1,1.3,0.4,1.9c0.3,0.6,0.6,1.1,1.1,1.6c0.5,0.5,1,0.8,1.6,1.1
		c0.6,0.3,1.3,0.4,1.9,0.4s1.3-0.1,1.9-0.4c0.6-0.3,1.1-0.6,1.6-1.1c0.5-0.5,0.8-1,1.1-1.6s0.4-1.3,0.4-1.9c0-0.7-0.1-1.3-0.4-1.9
		S236.6,18.4,236.1,17.9z"/>
	<path class="st0" d="M52.5,18c-0.5-0.5-1-0.8-1.6-1.1c-0.6-0.3-1.3-0.4-2-0.4c-0.7,0-1.4,0.1-2,0.4c-0.6,0.3-1.1,0.6-1.6,1.1
		c-0.5,0.5-0.8,1-1.1,1.6s-0.4,1.3-0.4,2c0,0.7,0.1,1.3,0.4,1.9s0.6,1.1,1.1,1.6c0.5,0.5,1,0.8,1.6,1.1c0.6,0.3,1.3,0.4,2,0.4
		c0.7,0,1.4-0.1,2-0.4c0.6-0.3,1.1-0.6,1.6-1.1c0.5-0.5,0.8-1,1.1-1.6c0.3-0.6,0.4-1.3,0.4-1.9c0-0.7-0.1-1.4-0.4-2
		C53.3,19,52.9,18.4,52.5,18z"/>
	<path class="st1" d="M5.4,22.9h4.1c0.9,0,1.8-0.1,2.6-0.4c0.8-0.2,1.6-0.6,2.3-1c0.8-0.5,1.5-1.1,2.1-1.9c0.6-0.7,1-1.6,1.3-2.5
		c0-0.1,0.1-0.2,0.1-0.3c0-0.1,0-0.2,0.1-0.3c0-0.1,0-0.1,0-0.1l0.1-0.7v0c0-0.1,0-0.2,0-0.4c0-0.1,0-0.3,0-0.4v0v0
		c0-0.1,0-0.3,0-0.4c0-0.1,0-0.2,0-0.4V14c0-0.1,0-0.2,0-0.3c0-0.1,0-0.2,0-0.4c0,0,0-0.1,0-0.1c0-0.2-0.1-0.4-0.2-0.6
		c-0.3-0.9-0.7-1.8-1.3-2.5c-0.6-0.7-1.3-1.4-2.1-1.9c-1.4-0.9-3-1.3-4.9-1.3H2.1v22.8h3.3V22.9z M5.5,9.8h4.4
		c0.7,0,1.3,0.1,1.9,0.4c0.6,0.3,1.1,0.7,1.5,1.1c0.4,0.5,0.8,1,1,1.6c0.2,0.6,0.4,1.2,0.4,1.9c0,0.7-0.1,1.3-0.4,1.9
		c-0.2,0.6-0.6,1.2-1,1.6c-0.4,0.5-0.9,0.9-1.5,1.1c-0.6,0.3-1.2,0.4-1.9,0.4H5.5V9.8z"/>
	<rect x="23.5" y="8.4" class="st1" width="3.2" height="3.2"/>
	<rect x="23.5" y="13.3" class="st1" width="3.2" height="16.4"/>
	<rect x="32.5" y="2.4" class="st1" width="3.2" height="27.1"/>
	<path class="st1" d="M54.7,15.7c-0.8-0.7-1.6-1.3-2.6-1.8c-1-0.4-2.1-0.7-3.2-0.7s-2.2,0.2-3.2,0.7c-1,0.4-1.9,1-2.6,1.8
		s-1.3,1.6-1.8,2.6c-0.4,1-0.6,2.1-0.6,3.2s0.2,2.2,0.7,3.2c0.4,1,1,1.9,1.8,2.6c0.7,0.7,1.6,1.3,2.6,1.8c1,0.4,2.1,0.7,3.2,0.7
		c1,0,1.9-0.2,2.7-0.5c0.8-0.3,1.6-0.7,2.3-1.3v1.5h3.2v-8c0-1.1-0.2-2.2-0.6-3.2C56.1,17.3,55.5,16.5,54.7,15.7z M53.6,23.5
		c-0.3,0.6-0.6,1.1-1.1,1.6c-0.5,0.5-1,0.8-1.6,1.1c-0.6,0.3-1.3,0.4-2,0.4c-0.7,0-1.4-0.1-2-0.4c-0.6-0.3-1.1-0.6-1.6-1.1
		c-0.5-0.5-0.8-1-1.1-1.6s-0.4-1.3-0.4-1.9c0-0.7,0.1-1.4,0.4-2s0.6-1.1,1.1-1.6c0.5-0.5,1-0.8,1.6-1.1c0.6-0.3,1.3-0.4,2-0.4
		c0.7,0,1.4,0.1,2,0.4c0.6,0.3,1.1,0.6,1.6,1.1c0.5,0.5,0.8,1,1.1,1.6c0.3,0.6,0.4,1.3,0.4,2C54,22.3,53.8,22.9,53.6,23.5z"/>
	<polygon class="st1" points="65.1,29.7 68.3,29.7 68.3,11.9 71.3,11.9 71.3,8.7 68.3,8.7 68.3,2.7 65.1,2.7 65.1,8.7 62.1,8.7 
		62.1,11.9 65.1,11.9 	"/>
	<path class="st1" d="M88,28.8c1.1-0.6,2-1.3,2.8-2.3c0.2-0.3,0.4-0.5,0.6-0.8c0.2-0.3,0.3-0.6,0.5-0.9h-3.2H88
		c-0.5,0.5-1,0.9-1.7,1.2c-0.6,0.3-1.3,0.4-2,0.4c-0.6,0-1.2-0.1-1.7-0.3s-1-0.5-1.5-0.8c-0.4-0.4-0.8-0.8-1.1-1.3s-0.5-1-0.6-1.6
		h6.2h3.5h3.2c0.1-0.3,0.1-0.7,0.1-1.1c0-0.7-0.1-1.4-0.3-2.1c-0.3-1.1-0.8-2.1-1.5-2.9c-0.7-1-1.7-1.7-2.8-2.3s-2.3-0.9-3.6-0.9
		c-1.1,0-2.2,0.2-3.2,0.6c-1,0.4-1.9,1-2.6,1.8s-1.3,1.6-1.8,2.6c-0.4,1-0.6,2.1-0.6,3.2c0,1.1,0.2,2.2,0.6,3.2c0.4,1,1,1.9,1.8,2.6
		c0.7,0.7,1.6,1.3,2.6,1.8c1,0.4,2.1,0.6,3.2,0.6C85.6,29.7,86.8,29.4,88,28.8z M81.6,17.3c0.8-0.5,1.7-0.8,2.7-0.8
		c0.8,0,1.5,0.2,2.2,0.5s1.3,0.8,1.7,1.4c0.1,0.1,0.2,0.3,0.3,0.5s0.2,0.3,0.3,0.5H87h-7.2C80.2,18.5,80.8,17.8,81.6,17.3z"/>
	<path class="st1" d="M106.9,26.8c0.3-0.6,0.4-1.2,0.5-1.9c0-0.5-0.1-1-0.2-1.5c-0.2-0.5-0.4-0.9-0.7-1.3c-0.2-0.3-0.5-0.6-0.7-0.7
		l-0.2-0.2c-0.4-0.3-0.7-0.5-1.1-0.7c-0.5-0.3-1-0.6-1.5-0.8c-0.5-0.2-1-0.5-1.3-0.7c-0.2-0.1-0.5-0.2-0.6-0.4
		c-0.2-0.2-0.3-0.4-0.3-0.6c0,0,0-0.1,0-0.2c0-0.4,0.2-0.7,0.5-0.9c0.3-0.2,0.7-0.4,1.2-0.3c0.4,0,0.7,0.1,0.9,0.2
		c0.3,0.2,0.5,0.4,0.6,0.6l2.6-1.8c-0.4-0.7-1-1.2-1.7-1.6c-0.7-0.4-1.5-0.6-2.4-0.7c-0.7,0-1.3,0.1-1.9,0.3
		c-0.6,0.2-1.1,0.5-1.6,0.9c-0.4,0.4-0.8,0.9-1.1,1.4s-0.4,1.1-0.4,1.7c0,0.6,0.1,1.2,0.3,1.8c0.2,0.5,0.6,1,1,1.4l0.1,0.1v0
		c0.3,0.3,0.6,0.5,1,0.7c0.4,0.2,0.7,0.4,1.1,0.6s0.7,0.3,1.1,0.5c0.4,0.2,0.7,0.3,1,0.5l0,0c0.1,0,0.2,0.1,0.3,0.1
		c0.4,0.2,0.7,0.5,0.8,0.9c0,0,0,0.1,0,0.1c0,0,0,0.1,0,0.1v0.1c0,0.1,0,0.2,0,0.3c0,0.5-0.2,0.9-0.6,1.2c-0.4,0.3-0.9,0.5-1.4,0.4
		c-0.5,0-0.9-0.1-1.2-0.4c-0.4-0.3-0.6-0.6-0.7-0.9L97.5,27c0.4,0.8,1,1.4,1.8,1.9c0.8,0.5,1.7,0.7,2.7,0.8c0.7,0,1.4-0.1,2-0.3
		c0.6-0.2,1.2-0.6,1.7-1C106.2,27.9,106.6,27.4,106.9,26.8z"/>
	<polygon class="st1" points="131.1,20.9 139.9,20.9 139.9,17.8 131.1,17.8 131.1,15.6 131.1,13.7 131.1,10.1 140.9,10.1 140.9,6.9 
		127.8,6.9 127.8,29.6 141.2,29.6 141.2,26.3 131.1,26.3 	"/>
	<path class="st1" d="M155.1,22.1c-0.2-0.3-0.5-0.6-0.7-0.7l-0.2-0.2c-0.4-0.3-0.7-0.5-1.1-0.7c-0.5-0.3-1-0.6-1.5-0.8
		c-0.5-0.2-1-0.5-1.3-0.7c-0.2-0.1-0.5-0.2-0.6-0.4c-0.2-0.2-0.3-0.4-0.3-0.6c0,0,0-0.1,0-0.2c0-0.4,0.2-0.7,0.5-0.9
		c0.3-0.2,0.7-0.4,1.2-0.3c0.4,0,0.7,0.1,0.9,0.2c0.3,0.2,0.5,0.4,0.6,0.6l2.6-1.8c-0.4-0.7-1-1.2-1.7-1.6c-0.7-0.4-1.5-0.6-2.4-0.7
		c-0.7,0-1.3,0.1-1.9,0.3c-0.6,0.2-1.1,0.5-1.6,0.9c-0.4,0.4-0.8,0.9-1.1,1.4s-0.4,1.1-0.4,1.7c0,0.6,0.1,1.2,0.3,1.8
		c0.2,0.5,0.6,1,1,1.4l0.1,0.1v0c0.3,0.3,0.6,0.5,1,0.7c0.4,0.2,0.7,0.4,1.1,0.6s0.7,0.3,1.1,0.5c0.4,0.2,0.7,0.3,1,0.5l0,0
		c0.1,0,0.2,0.1,0.3,0.1c0.4,0.2,0.7,0.5,0.8,0.9c0,0,0,0.1,0,0.1c0,0,0,0.1,0,0.1v0.1c0,0.1,0,0.2,0,0.3c0,0.5-0.2,0.9-0.6,1.2
		c-0.4,0.3-0.9,0.5-1.4,0.4c-0.5,0-0.9-0.1-1.2-0.4c-0.4-0.3-0.6-0.6-0.7-0.9l-2.7,1.9c0.4,0.8,1,1.4,1.8,1.9
		c0.8,0.5,1.7,0.7,2.7,0.8c0.7,0,1.4-0.1,2-0.3c0.6-0.2,1.2-0.6,1.7-1c0.5-0.4,0.9-0.9,1.1-1.5c0.3-0.6,0.4-1.2,0.5-1.9
		c0-0.5-0.1-1-0.2-1.5C155.6,22.9,155.4,22.5,155.1,22.1z"/>
	<polygon class="st1" points="167.1,2.7 163.9,2.7 163.9,8.7 160.9,8.7 160.9,11.9 163.9,11.9 163.9,29.7 167.1,29.7 167.1,11.9 
		170.1,11.9 170.1,8.7 167.1,8.7 	"/>
	<path class="st1" d="M186,16.7v5.9c0,0.5-0.1,1-0.3,1.5s-0.5,0.9-0.8,1.2c-0.4,0.4-0.8,0.6-1.3,0.8c-0.5,0.2-1,0.3-1.5,0.3
		s-1-0.1-1.5-0.3c-0.5-0.2-0.9-0.5-1.3-0.8c-0.3-0.4-0.6-0.8-0.8-1.2c-0.2-0.5-0.3-1-0.3-1.5v-5.9v-3.3H175v9.3
		c0,1.2,0.3,2.4,0.9,3.4s1.4,1.9,2.3,2.5c0.6,0.4,1.2,0.7,1.9,0.9c0.7,0.2,1.3,0.3,2.1,0.3s1.4-0.1,2.1-0.3c0.7-0.2,1.3-0.5,1.9-0.9
		c1-0.6,1.8-1.5,2.3-2.5c0.6-1,0.9-2.2,0.9-3.4v-9.3H186V16.7z"/>
	<path class="st1" d="M207.2,15c-0.7-0.5-1.5-1-2.3-1.3c-0.8-0.3-1.7-0.4-2.7-0.4c-1.1,0-2.2,0.2-3.2,0.6c-1,0.4-1.9,1-2.6,1.8
		s-1.3,1.6-1.8,2.6c-0.4,1-0.6,2.1-0.6,3.2c0,1.1,0.2,2.2,0.6,3.2c0.4,1,1,1.9,1.8,2.6c0.7,0.7,1.6,1.3,2.6,1.8
		c1,0.4,2.1,0.6,3.2,0.6s2.2-0.2,3.2-0.6s1.9-1,2.6-1.8c0.7-0.7,1.3-1.6,1.8-2.6c0.4-1,0.6-2.1,0.6-3.2v0V2.3h-3.2V15z M207.2,21.5
		c0,0.7-0.1,1.3-0.4,1.9c-0.3,0.6-0.6,1.1-1.1,1.6c-0.5,0.5-1,0.8-1.6,1.1c-0.6,0.3-1.3,0.4-1.9,0.4s-1.3-0.1-1.9-0.4
		c-0.6-0.3-1.1-0.6-1.6-1.1c-0.5-0.5-0.8-1-1.1-1.6c-0.3-0.6-0.4-1.3-0.4-1.9c0-0.7,0.1-1.3,0.4-1.9c0.3-0.6,0.6-1.1,1.1-1.6
		c0.5-0.5,1-0.8,1.6-1.1c0.6-0.3,1.3-0.4,1.9-0.4s1.3,0.1,1.9,0.4c0.6,0.3,1.1,0.6,1.6,1.1c0.5,0.5,0.8,1,1.1,1.6
		C207.1,20.1,207.2,20.8,207.2,21.5L207.2,21.5z"/>
	<rect x="215.8" y="13.3" class="st1" width="3.2" height="16.4"/>
	<rect x="215.8" y="8.4" class="st1" width="3.2" height="3.2"/>
	<path class="st1" d="M240.1,18.2c-0.4-1-1-1.9-1.8-2.6c-0.7-0.7-1.6-1.3-2.6-1.8c-1-0.4-2.1-0.6-3.2-0.6s-2.2,0.2-3.2,0.6
		c-1,0.4-1.9,1-2.6,1.8c-0.7,0.7-1.3,1.6-1.8,2.6c-0.4,1-0.6,2.1-0.6,3.2s0.2,2.2,0.6,3.2c0.4,1,1,1.9,1.8,2.6s1.6,1.3,2.6,1.8
		c1,0.4,2.1,0.6,3.2,0.6s2.2-0.2,3.2-0.6c1-0.4,1.9-1,2.6-1.8s1.3-1.6,1.8-2.6c0.4-1,0.6-2.1,0.6-3.2S240.5,19.2,240.1,18.2z
		 M237.2,23.4c-0.3,0.6-0.6,1.1-1.1,1.6c-0.5,0.5-1,0.8-1.6,1.1c-0.6,0.3-1.3,0.4-1.9,0.4s-1.3-0.1-1.9-0.4
		c-0.6-0.3-1.1-0.6-1.6-1.1c-0.5-0.5-0.8-1-1.1-1.6c-0.3-0.6-0.4-1.3-0.4-1.9c0-0.7,0.1-1.3,0.4-1.9c0.3-0.6,0.6-1.1,1.1-1.6
		c0.5-0.5,1-0.8,1.6-1.1c0.6-0.3,1.3-0.4,1.9-0.4s1.3,0.1,1.9,0.4c0.6,0.3,1.1,0.6,1.6,1.1c0.5,0.5,0.8,1,1.1,1.6s0.4,1.3,0.4,1.9
		C237.6,22.1,237.4,22.8,237.2,23.4z"/>
	<polygon class="st1" points="10.3,57.5 5.5,46.6 1.9,46.6 8.4,61.4 2.6,73.4 6.3,73.4 10.1,65.4 12,61.5 19.2,46.6 15.5,46.6 	"/>
	<polygon class="st1" points="48.3,52.3 43.3,40.1 39.6,40.1 39.7,40.2 39.6,40.2 46.7,55.5 46.7,62.9 46.7,63 50,63 50,62.9 
		50,55.5 57,40.2 57,40.1 53.4,40.1 	"/>
	<path class="st1" d="M75.9,48.9c-0.7-0.7-1.6-1.3-2.6-1.8s-2.1-0.6-3.2-0.6s-2.2,0.2-3.2,0.6c-1,0.4-1.9,1-2.6,1.8
		c-0.7,0.7-1.3,1.6-1.8,2.6c-0.4,1-0.6,2.1-0.6,3.2s0.2,2.2,0.6,3.2c0.4,1,1,1.9,1.8,2.6s1.6,1.3,2.6,1.8c1,0.4,2.1,0.6,3.2,0.6
		s2.2-0.2,3.2-0.6c1-0.4,1.9-1,2.6-1.8s1.3-1.6,1.8-2.6c0.4-1,0.6-2.1,0.6-3.2s-0.2-2.2-0.6-3.2C77.2,50.5,76.6,49.7,75.9,48.9z
		 M74.7,56.7c-0.3,0.6-0.6,1.1-1.1,1.6c-0.5,0.5-1,0.8-1.6,1.1c-0.6,0.3-1.3,0.4-1.9,0.4c-0.7,0-1.3-0.1-1.9-0.4
		c-0.6-0.3-1.1-0.6-1.6-1.1c-0.5-0.5-0.8-1-1.1-1.6c-0.3-0.6-0.4-1.3-0.4-1.9c0-0.7,0.1-1.3,0.4-1.9c0.3-0.6,0.6-1.1,1.1-1.6
		c0.5-0.5,1-0.8,1.6-1.1c0.6-0.3,1.3-0.4,1.9-0.4c0.7,0,1.3,0.1,1.9,0.4c0.6,0.3,1.1,0.6,1.6,1.1c0.5,0.5,0.8,1,1.1,1.6
		s0.4,1.3,0.4,1.9C75.1,55.4,75,56,74.7,56.7z"/>
	<path class="st1" d="M99.5,64.6c-0.4-0.4-0.8-0.6-1.2-0.8c-0.4-0.2-0.8-0.3-1.2-0.3h-7.8c-0.6,0-1.1-0.1-1.5-0.2
		c-0.4-0.1-0.7-0.2-1-0.4c-0.3-0.2-0.5-0.5-0.5-0.8c0-0.3,0.1-0.5,0.4-0.7c0.3-0.2,0.6-0.3,0.9-0.4H91h0.4c0.9-0.1,1.8-0.3,2.6-0.7
		c0.8-0.4,1.5-0.9,2.1-1.5c0.6-0.6,1.1-1.4,1.4-2.2c0.4-0.8,0.5-1.7,0.5-2.7c0-0.7-0.1-1.4-0.3-2.1c-0.2-0.7-0.5-1.3-0.9-1.9h2.2
		v-3.2h-8H91c-1,0-1.9,0.2-2.8,0.6c-0.9,0.4-1.6,0.9-2.3,1.5c-0.7,0.7-1.2,1.4-1.5,2.3s-0.6,1.8-0.6,2.8c0,0.9,0.1,1.7,0.4,2.5
		s0.7,1.5,1.2,2.1c-0.7,0.4-1.2,0.9-1.7,1.5s-0.7,1.4-0.7,2.2c0,0.8,0.2,1.5,0.5,2.1c0.4,0.6,0.8,1.1,1.4,1.4c0.6,0.4,1.2,0.7,2,0.9
		c0.7,0.2,1.5,0.3,2.2,0.3h7.7c0,0,0.1,0,0.1,0c0.1,0,0.1,0.1,0.2,0.2s0.1,0.3,0.2,0.5c0.1,0.2,0.1,0.5,0.1,0.8
		c0,0.9-0.2,1.4-0.6,1.4h-7.6c-0.6-0.1-1.1-0.1-1.5-0.2c-0.4-0.1-0.7-0.2-1-0.4c-0.3-0.2-0.5-0.5-0.5-0.8h-3.2c0,0.8,0.2,1.5,0.5,2
		c0.4,0.6,0.8,1.1,1.4,1.5c0.6,0.4,1.2,0.7,2,0.9c0.7,0.2,1.5,0.3,2.2,0.3H97c0.4,0,0.8-0.1,1.2-0.2c0.4-0.2,0.8-0.4,1.2-0.8
		c0.4-0.4,0.7-0.8,0.9-1.4s0.4-1.3,0.4-2.2c0-0.8-0.1-1.5-0.4-2.1C100.1,65.5,99.8,65,99.5,64.6z M87.4,52.3
		c0.2-0.5,0.5-0.9,0.8-1.3c0.4-0.4,0.8-0.6,1.3-0.9c0.5-0.2,1-0.3,1.5-0.3c0.6,0,1.1,0.1,1.5,0.3c0.5,0.2,0.9,0.5,1.3,0.9
		c0.4,0.4,0.6,0.8,0.9,1.3c0.2,0.5,0.3,1,0.3,1.5c0,0.5-0.1,1-0.3,1.5c-0.2,0.5-0.5,0.9-0.9,1.3c-0.4,0.4-0.8,0.6-1.3,0.8
		c-0.5,0.2-1,0.3-1.5,0.3c-0.5,0-1-0.1-1.5-0.3c-0.5-0.2-0.9-0.5-1.3-0.8c-0.4-0.4-0.6-0.8-0.8-1.3c-0.2-0.5-0.3-1-0.3-1.5
		C87.1,53.3,87.2,52.7,87.4,52.3z"/>
	<path class="st1" d="M119.3,49c-0.8-0.7-1.6-1.3-2.6-1.8c-1-0.4-2.1-0.7-3.2-0.7c-1.1,0-2.2,0.2-3.2,0.7c-1,0.4-1.9,1-2.6,1.8
		c-0.7,0.7-1.3,1.6-1.8,2.6c-0.4,1-0.6,2.1-0.6,3.2s0.2,2.2,0.7,3.2c0.4,1,1,1.9,1.8,2.6c0.7,0.7,1.6,1.3,2.6,1.8
		c1,0.4,2.1,0.7,3.2,0.7c1,0,1.9-0.2,2.7-0.5c0.8-0.3,1.6-0.7,2.3-1.3v1.5h3.2v-8c0-1.1-0.2-2.2-0.6-3.2
		C120.6,50.6,120,49.7,119.3,49z M118.1,56.8c-0.3,0.6-0.6,1.1-1.1,1.6c-0.5,0.5-1,0.8-1.6,1.1c-0.6,0.3-1.3,0.4-2,0.4
		s-1.4-0.1-2-0.4c-0.6-0.3-1.1-0.6-1.6-1.1c-0.5-0.5-0.8-1-1.1-1.6c-0.3-0.6-0.4-1.3-0.4-1.9c0-0.7,0.1-1.4,0.4-2
		c0.3-0.6,0.6-1.1,1.1-1.6c0.5-0.5,1-0.8,1.6-1.1c0.6-0.3,1.3-0.4,2-0.4s1.4,0.1,2,0.4c0.6,0.3,1.1,0.6,1.6,1.1
		c0.5,0.5,0.8,1,1.1,1.6s0.4,1.3,0.4,2C118.5,55.5,118.4,56.2,118.1,56.8z"/>
</g>
</svg>
